<svg width="264" height="77" xmlns="http://www.w3.org/2000/svg">
<path d="M55.3979 2C45.2041 14.3883 35.1998 26.3087 22.7312 36.4444C16.4764 41.5291 -3.93259 53.9962 3.67569 51.3333C16.1297 46.9744 33.6822 39.6796 41.3979 55.1111C45.8316 63.9786 49.458 74.1922 60.9535 74.8889C86.3119 76.4258 104.972 66.2969 126.398 55.2778C130.208 53.3181 133.606 50.793 137.065 48.2778C139.549 46.4709 139.354 51.2029 139.842 52.7778C143.553 64.7349 168.603 55.6187 176.842 54.2222C189.407 52.0926 204.935 55.9064 217.287 57.7778C233.062 60.168 246.698 58.7444 262.398 57"
fill="none" stroke="#DDDDDD" stroke-width="3"/>
</svg>

